<svg xmlns="http://www.w3.org/2000/svg" viewBox="0 0 170 230" width="170" height="230" fill="none" stroke="#4a2c15" stroke-width="4" stroke-linecap="round" stroke-linejoin="round"><path d="M28 205v10m105-10v10" stroke-width="8"/><path d="M20 22L38 9h116l-17 13" fill="#9eb8a5"/><path d="M137 22l17-13v183l-17 17" fill="#4d7367"/><rect x="19" y="22" width="119" height="184" rx="7" fill="#638e7c"/><rect x="30" y="38" width="96" height="32" rx="4" fill="#afbea0"/><path d="M40 49h42m-42 9h42" stroke="#647b65" stroke-width="3"/><circle cx="104" cy="54" r="4" fill="#c4d985" stroke-width="2"/><rect x="30" y="77" width="96" height="32" rx="4" fill="#afbea0"/><path d="M40 88h42m-42 9h42" stroke="#647b65" stroke-width="3"/><circle cx="104" cy="93" r="4" fill="#c4d985" stroke-width="2"/><rect x="30" y="116" width="96" height="32" rx="4" fill="#afbea0"/><path d="M40 127h42m-42 9h42" stroke="#647b65" stroke-width="3"/><circle cx="104" cy="132" r="4" fill="#c4d985" stroke-width="2"/><rect x="30" y="155" width="96" height="32" rx="4" fill="#afbea0"/><path d="M40 166h42m-42 9h42" stroke="#647b65" stroke-width="3"/><circle cx="104" cy="171" r="4" fill="#c4d985" stroke-width="2"/></svg>